<svg version="1" xmlns="http://www.w3.org/2000/svg" width="666.667" height="666.667" viewBox="0 0 500.000000 500.000000"><path d="M0 250v250h500V0H0v250zm485 0v235H15V15h470v235z"/><path d="M105.5 90c-21.3 2.9-40.7 17.1-49.8 36.2-5.8 11.9-7.2 17.9-7.1 30.3 0 15.4 4.5 28.2 14 40.1 13.1 16.3 31.8 25.4 52.3 25.4 25.7-.1 48.3-14.3 59.6-37.6 1.9-3.9 3.5-7.4 3.5-7.8 0-.3-7.2-.6-15.9-.6h-15.9l-3.5 4.8c-6.8 9.6-18.7 14.9-30.8 13.9-13.1-1.1-23.8-8.8-30.1-21.5-3.1-6.2-3.3-7.3-3.3-17.2 0-9.7.2-11 3.1-17.1 4.1-8.7 8.9-13.8 16.6-17.9 5.4-2.9 7.5-3.5 14.8-3.8 11.5-.5 18.2 1.9 26.1 9.7 3.1 3.1 5.8 6.2 6 6.9.3 1 4.2 1.2 16.7 1l16.3-.3-4.2-8.5c-7.9-16-25.2-30.2-42-34.4-7.6-1.9-19.2-2.6-26.4-1.6zM246.5 90c-13.3 1.9-26.9 8.6-36.9 18.5-21.8 21.4-26.7 51.3-12.9 77.8 5.1 9.8 18.2 22.9 28 28 26.5 13.8 56.4 8.9 77.8-12.9 12.2-12.4 18.7-27.8 18.7-44.9.2-18.6-6.1-33.4-19.7-47-15.1-15.1-35.2-22.3-55-19.5zm17 29.5c11.4 3 20.4 10.8 25.7 22.2 3.9 8.2 4.1 17.7.8 26.6-2.9 7.6-11.4 16.8-19.4 21-5.5 2.9-7 3.2-15.1 3.2-8.2 0-9.7-.3-15.7-3.3-7.8-3.8-14.9-11-18.7-19.2-2.2-4.7-2.6-6.9-2.6-14.5 0-7.8.4-9.7 2.8-14.8 6.3-12.7 20.1-22.2 33.2-22.6 1.7-.1 5.8.6 9 1.4zM329.2 93.2c.3 1.3 11.7 29.7 25.3 63.3 13.6 33.5 25 61.6 25.2 62.2.4 1 4 1.3 13.2 1.3h12.6l25.5-63.1c14-34.7 25.6-63.7 25.8-64.5.3-1.2-2.4-1.4-15.1-1.4-13.8 0-15.6.2-16.2 1.7-2.6 6.8-28.5 77.3-28.5 77.7 0 .3-1 3.1-2.1 6.2l-2.1 5.6-15.5-42.3c-8.5-23.3-16-43.9-16.6-45.7l-1-3.2h-30.9l.4 2.2zM166.5 278.1c-8.4 1.2-19.5 6.9-26 13.4-6.2 6.2-11 15.5-12.6 24-4 22.1 12 45.9 34.2 50.9l4.7 1.1-14.4 19.7c-7.9 10.9-14.4 20-14.4 20.3 0 .3 7.5.5 16.8.5l16.7-.1L192 379c23.7-33.5 26.4-37.9 28.6-48 2.1-9.2 1-18-3.4-27.3-8.8-18.6-29-28.8-50.7-25.6zm18.7 29.7c10.5 6.5 10.3 22.9-.3 29.9-3.3 2.1-5.4 2.7-9.8 2.8-10.3 0-17.8-6.2-18.8-15.9-1.8-15.2 15.4-25.1 28.9-16.8zM87.7 286.3l-21.8 7.1.3 10.1.3 10 7.3.3 7.2.3V408h29v-64.5c0-35.5-.1-64.5-.2-64.4-.2.1-10.1 3.3-22.1 7.2zM229 292.5V306h36v102h29V306h37v-27H229v13.5zM342.7 279.7c-.4.3-.7 29.4-.7 64.5V408h30l.2-21.7.3-21.6 14.4 21.6 14.4 21.7h18.5c14.6 0 18.2-.3 17.5-1.3-2.8-3.5-33.7-43.4-34.5-44.3-.6-.8 1.2-2.1 5.6-4.2 24-11.2 29.8-46.1 11.1-66.1-10.8-11.6-16.7-13.1-50.5-13.1-14.1 0-26 .3-26.3.7zm51.1 24.6c1.7 1 4.4 3.6 5.9 5.9 5.2 7.8 3.2 20.9-4.1 26.1-2.6 1.9-4.7 2.3-13.3 2.5l-10.3.4v-37.4l9.3.4c6 .3 10.3 1 12.5 2.1z"/></svg>